<mxfile host="app.diagrams.net" modified="2021-04-17T03:33:14.674Z" agent="5.0 (Windows NT 10.0; Win64; x64) AppleWebKit/537.36 (KHTML, like Gecko) Chrome/88.0.4324.146 Safari/537.36" etag="LSEPGn4DA5wgCx_TxxIF" version="14.6.0" type="github" pages="2">
  <diagram id="g7usEjnd5ee0Ly5ZbJtn" name="Page-1">
    <mxGraphModel dx="677" dy="336" grid="1" gridSize="10" guides="1" tooltips="1" connect="1" arrows="1" fold="1" page="1" pageScale="1" pageWidth="850" pageHeight="1100" math="0" shadow="0">
      <root>
        <mxCell id="0" />
        <mxCell id="1" parent="0" />
        <mxCell id="K6NKCnMjnbAVRSnIbpeF-34" value="AIMSUN: traffic simulation" style="rounded=1;align=center;verticalAlign=top;fontSize=11;fontStyle=0;strokeColor=#666666;fillColor=#f5f5f5;fontColor=#333333;glass=0;" parent="1" vertex="1">
          <mxGeometry x="160" y="539.76" width="194.06" height="140.24" as="geometry" />
        </mxCell>
        <mxCell id="K6NKCnMjnbAVRSnIbpeF-35" value="" style="edgeStyle=orthogonalEdgeStyle;rounded=0;orthogonalLoop=1;jettySize=auto;endArrow=blockThin;endFill=1;startArrow=blockThin;startFill=1;" parent="1" source="K6NKCnMjnbAVRSnIbpeF-37" target="K6NKCnMjnbAVRSnIbpeF-38" edge="1">
          <mxGeometry relative="1" as="geometry" />
        </mxCell>
        <mxCell id="K6NKCnMjnbAVRSnIbpeF-36" value="" style="edgeStyle=orthogonalEdgeStyle;rounded=0;orthogonalLoop=1;jettySize=auto;startArrow=blockThin;startFill=1;endArrow=blockThin;endFill=1;strokeWidth=1;" parent="1" source="K6NKCnMjnbAVRSnIbpeF-37" target="K6NKCnMjnbAVRSnIbpeF-38" edge="1">
          <mxGeometry relative="1" as="geometry" />
        </mxCell>
        <mxCell id="K6NKCnMjnbAVRSnIbpeF-37" value="API Module" style="rounded=1;align=center;verticalAlign=top;fontSize=10;fontStyle=0;fillColor=#dae8fc;strokeColor=#6c8ebf;" parent="1" vertex="1">
          <mxGeometry x="270" y="572.01" width="63.98" height="91.99" as="geometry" />
        </mxCell>
        <mxCell id="K6NKCnMjnbAVRSnIbpeF-38" value="Traffic&#xa;Simulation&#xa;Model" style="rounded=1;align=center;verticalAlign=middle;fontSize=10;fontStyle=0;fillColor=#fff2cc;strokeColor=#d6b656;gradientColor=#ffd966;" parent="1" vertex="1">
          <mxGeometry x="171.9" y="583.0699999999999" width="70.08" height="70.866" as="geometry" />
        </mxCell>
        <mxCell id="K6NKCnMjnbAVRSnIbpeF-39" value="UDP Socket" style="rounded=1;align=center;verticalAlign=middle;fillColor=#d5e8d4;strokeColor=#82b366;fontSize=10;fontStyle=0;" parent="1" vertex="1">
          <mxGeometry x="381.9" y="596.15" width="64.21" height="43.71" as="geometry" />
        </mxCell>
        <mxCell id="K6NKCnMjnbAVRSnIbpeF-40" value="ROS: on-vehicle simulation" style="rounded=1;align=center;verticalAlign=top;fontSize=11;fontStyle=0;strokeColor=#666666;fillColor=#f5f5f5;fontColor=#333333;glass=0;" parent="1" vertex="1">
          <mxGeometry x="473.9" y="540" width="186.1" height="140" as="geometry" />
        </mxCell>
        <mxCell id="K6NKCnMjnbAVRSnIbpeF-42" value="Data&#xa;Visulization&#xa;(GUI)" style="rounded=1;align=center;verticalAlign=middle;fontSize=10;fontStyle=0;strokeColor=#432D57;fillColor=#E6E6E6;" parent="1" vertex="1">
          <mxGeometry x="577.99" y="582.5699999999999" width="70.0786" height="70.866" as="geometry" />
        </mxCell>
        <mxCell id="K6NKCnMjnbAVRSnIbpeF-43" value="" style="rounded=0;orthogonalLoop=1;jettySize=auto;startArrow=blockThin;startFill=1;endArrow=none;endFill=0;strokeWidth=1;exitX=-0.012;exitY=0.247;exitDx=0;exitDy=0;exitPerimeter=0;" parent="1" source="K6NKCnMjnbAVRSnIbpeF-39" edge="1">
          <mxGeometry relative="1" as="geometry">
            <mxPoint x="383.9" y="607" as="sourcePoint" />
            <mxPoint x="355" y="607" as="targetPoint" />
          </mxGeometry>
        </mxCell>
        <mxCell id="K6NKCnMjnbAVRSnIbpeF-44" value="" style="rounded=0;orthogonalLoop=1;jettySize=auto;startArrow=blockThin;startFill=1;endArrow=none;endFill=0;strokeWidth=1;entryX=1;entryY=0.25;entryDx=0;entryDy=0;" parent="1" target="K6NKCnMjnbAVRSnIbpeF-39" edge="1">
          <mxGeometry relative="1" as="geometry">
            <mxPoint x="474.9" y="607" as="sourcePoint" />
            <mxPoint x="333.9" y="617.0775" as="targetPoint" />
          </mxGeometry>
        </mxCell>
        <mxCell id="K6NKCnMjnbAVRSnIbpeF-45" value="" style="edgeStyle=orthogonalEdgeStyle;rounded=0;orthogonalLoop=1;jettySize=auto;startArrow=blockThin;startFill=1;endArrow=none;endFill=0;strokeWidth=1;entryX=1;entryY=0.5;entryDx=0;entryDy=0;" parent="1" source="K6NKCnMjnbAVRSnIbpeF-42" target="-QNfoEiQIN1xO6m_8FKs-46" edge="1">
          <mxGeometry relative="1" as="geometry">
            <mxPoint x="500.08000000000004" y="616.56" as="sourcePoint" />
            <mxPoint x="558.0030999999999" y="618.5" as="targetPoint" />
            <Array as="points">
              <mxPoint x="560" y="618" />
              <mxPoint x="560" y="591" />
            </Array>
          </mxGeometry>
        </mxCell>
        <mxCell id="K6NKCnMjnbAVRSnIbpeF-56" value="" style="edgeStyle=orthogonalEdgeStyle;rounded=0;orthogonalLoop=1;jettySize=auto;startArrow=none;startFill=0;endArrow=blockThin;endFill=1;strokeWidth=1;entryX=0.999;entryY=0.776;entryDx=0;entryDy=0;entryPerimeter=0;" parent="1" target="K6NKCnMjnbAVRSnIbpeF-39" edge="1">
          <mxGeometry relative="1" as="geometry">
            <mxPoint x="473.89999999999975" y="630" as="sourcePoint" />
            <mxPoint x="453.9" y="630" as="targetPoint" />
            <Array as="points">
              <mxPoint x="460.9" y="630" />
            </Array>
          </mxGeometry>
        </mxCell>
        <mxCell id="K6NKCnMjnbAVRSnIbpeF-57" value="" style="rounded=0;orthogonalLoop=1;jettySize=auto;startArrow=none;startFill=0;endArrow=blockThin;endFill=1;strokeWidth=1;entryX=0.995;entryY=0.644;entryDx=0;entryDy=0;entryPerimeter=0;exitX=0.003;exitY=0.771;exitDx=0;exitDy=0;exitPerimeter=0;" parent="1" source="K6NKCnMjnbAVRSnIbpeF-39" target="K6NKCnMjnbAVRSnIbpeF-34" edge="1">
          <mxGeometry relative="1" as="geometry">
            <mxPoint x="373.9" y="630" as="sourcePoint" />
            <mxPoint x="358.0457899999999" y="630.06896" as="targetPoint" />
          </mxGeometry>
        </mxCell>
        <mxCell id="K6NKCnMjnbAVRSnIbpeF-58" value="" style="edgeStyle=orthogonalEdgeStyle;rounded=0;orthogonalLoop=1;jettySize=auto;startArrow=none;startFill=0;endArrow=none;endFill=0;strokeWidth=1;" parent="1" edge="1">
          <mxGeometry relative="1" as="geometry">
            <mxPoint x="354.9" y="606.9999999999998" as="sourcePoint" />
            <mxPoint x="282" y="606.9999999999998" as="targetPoint" />
            <Array as="points">
              <mxPoint x="332.9" y="607" />
              <mxPoint x="332.9" y="607" />
            </Array>
          </mxGeometry>
        </mxCell>
        <mxCell id="K6NKCnMjnbAVRSnIbpeF-59" value="TrafficInf" style="edgeLabel;align=center;verticalAlign=middle;resizable=0;points=[];fontSize=8;labelBackgroundColor=none;" parent="K6NKCnMjnbAVRSnIbpeF-58" vertex="1" connectable="0">
          <mxGeometry x="-0.195" y="2" relative="1" as="geometry">
            <mxPoint x="-29.03" y="-7" as="offset" />
          </mxGeometry>
        </mxCell>
        <mxCell id="K6NKCnMjnbAVRSnIbpeF-64" value="" style="edgeStyle=orthogonalEdgeStyle;rounded=0;orthogonalLoop=1;jettySize=auto;startArrow=none;startFill=0;endArrow=none;endFill=0;strokeWidth=1;" parent="1" edge="1">
          <mxGeometry relative="1" as="geometry">
            <mxPoint x="353.9" y="629.9999999999998" as="sourcePoint" />
            <mxPoint x="280" y="630" as="targetPoint" />
            <Array as="points">
              <mxPoint x="331.9" y="630" />
              <mxPoint x="331.9" y="630" />
            </Array>
          </mxGeometry>
        </mxCell>
        <mxCell id="K6NKCnMjnbAVRSnIbpeF-65" value="EgoVehicelInf" style="edgeLabel;align=center;verticalAlign=middle;resizable=0;points=[];fontSize=8;labelBackgroundColor=none;" parent="K6NKCnMjnbAVRSnIbpeF-64" vertex="1" connectable="0">
          <mxGeometry x="-0.195" y="2" relative="1" as="geometry">
            <mxPoint x="-19.03" y="-7" as="offset" />
          </mxGeometry>
        </mxCell>
        <mxCell id="tJCZRqBJ2CxmemZXy25r-1" value="Human Driver" style="rounded=1;align=center;verticalAlign=middle;fontSize=10;fontStyle=0;fillColor=#F8CBAD;strokeColor=#578EC0;arcSize=10;" parent="1" vertex="1">
          <mxGeometry x="576.9" y="720" width="80.88" height="30" as="geometry" />
        </mxCell>
        <mxCell id="tJCZRqBJ2CxmemZXy25r-2" value="" style="rounded=0;orthogonalLoop=1;jettySize=auto;startArrow=blockThin;startFill=1;endArrow=none;endFill=0;strokeWidth=1;entryX=1;entryY=0.5;entryDx=0;entryDy=0;exitX=1;exitY=0.5;exitDx=0;exitDy=0;edgeStyle=orthogonalEdgeStyle;dashed=1;" parent="1" source="tJCZRqBJ2CxmemZXy25r-1" target="K6NKCnMjnbAVRSnIbpeF-42" edge="1">
          <mxGeometry relative="1" as="geometry">
            <mxPoint x="391.12948000000006" y="616.94637" as="sourcePoint" />
            <mxPoint x="364.66048" y="617.1652" as="targetPoint" />
          </mxGeometry>
        </mxCell>
        <mxCell id="FIuZF2IC0c6RJkiDbf_0-8" value="DriverPerception" style="edgeLabel;align=center;verticalAlign=middle;resizable=0;points=[];fontSize=9;labelBackgroundColor=none;" parent="tJCZRqBJ2CxmemZXy25r-2" vertex="1" connectable="0">
          <mxGeometry x="-0.1602" relative="1" as="geometry">
            <mxPoint x="-37.730000000000004" y="11.98" as="offset" />
          </mxGeometry>
        </mxCell>
        <mxCell id="FIuZF2IC0c6RJkiDbf_0-1" value="Driving Console" style="rounded=1;align=center;verticalAlign=middle;fillColor=#d0cee2;strokeColor=#56517e;fontSize=9;fontStyle=0;" parent="1" vertex="1">
          <mxGeometry x="420" y="720" width="72.9" height="30" as="geometry" />
        </mxCell>
        <mxCell id="FIuZF2IC0c6RJkiDbf_0-3" value="" style="rounded=0;orthogonalLoop=1;jettySize=auto;startArrow=none;startFill=0;endArrow=blockThin;endFill=1;strokeWidth=1;entryX=1;entryY=0.5;entryDx=0;entryDy=0;exitX=0;exitY=0.5;exitDx=0;exitDy=0;" parent="1" source="tJCZRqBJ2CxmemZXy25r-1" target="FIuZF2IC0c6RJkiDbf_0-1" edge="1">
          <mxGeometry relative="1" as="geometry">
            <mxPoint x="458.30262999999985" y="756.72041" as="sourcePoint" />
            <mxPoint x="429.2997000000001" y="756.94456" as="targetPoint" />
          </mxGeometry>
        </mxCell>
        <mxCell id="FIuZF2IC0c6RJkiDbf_0-6" value="DriverOperation" style="edgeLabel;align=center;verticalAlign=middle;resizable=0;points=[];fontSize=9;" parent="FIuZF2IC0c6RJkiDbf_0-3" vertex="1" connectable="0">
          <mxGeometry x="-0.1623" y="2" relative="1" as="geometry">
            <mxPoint x="-2.48" y="-10" as="offset" />
          </mxGeometry>
        </mxCell>
        <mxCell id="FIuZF2IC0c6RJkiDbf_0-4" value="" style="rounded=0;orthogonalLoop=1;jettySize=auto;startArrow=blockThin;startFill=1;endArrow=none;endFill=0;strokeWidth=1;entryX=0;entryY=0.5;entryDx=0;entryDy=0;edgeStyle=orthogonalEdgeStyle;fillColor=#dae8fc;strokeColor=#3333FF;" parent="1" target="FIuZF2IC0c6RJkiDbf_0-1" edge="1">
          <mxGeometry relative="1" as="geometry">
            <mxPoint x="474" y="650" as="sourcePoint" />
            <mxPoint x="369.08860000000004" y="720.0029999999999" as="targetPoint" />
            <Array as="points">
              <mxPoint x="410" y="650" />
              <mxPoint x="410" y="735" />
            </Array>
          </mxGeometry>
        </mxCell>
        <mxCell id="FIuZF2IC0c6RJkiDbf_0-7" value="DrivingCommand" style="edgeLabel;align=center;verticalAlign=middle;resizable=0;points=[];fontSize=9;labelBackgroundColor=none;" parent="FIuZF2IC0c6RJkiDbf_0-4" vertex="1" connectable="0">
          <mxGeometry x="-0.2633" y="1" relative="1" as="geometry">
            <mxPoint x="34.9" y="46.22" as="offset" />
          </mxGeometry>
        </mxCell>
        <mxCell id="-QNfoEiQIN1xO6m_8FKs-2" value="AIMSUN: traffic simulation" style="rounded=1;align=center;verticalAlign=top;fontSize=11;fontStyle=0;strokeColor=#666666;fillColor=#f5f5f5;fontColor=#333333;glass=0;" parent="1" vertex="1">
          <mxGeometry x="160" y="290" width="200.16" height="157.48" as="geometry" />
        </mxCell>
        <mxCell id="-QNfoEiQIN1xO6m_8FKs-3" value="" style="edgeStyle=orthogonalEdgeStyle;rounded=0;orthogonalLoop=1;jettySize=auto;endArrow=blockThin;endFill=1;startArrow=blockThin;startFill=1;" parent="1" source="-QNfoEiQIN1xO6m_8FKs-5" target="-QNfoEiQIN1xO6m_8FKs-6" edge="1">
          <mxGeometry relative="1" as="geometry" />
        </mxCell>
        <mxCell id="-QNfoEiQIN1xO6m_8FKs-4" value="" style="edgeStyle=orthogonalEdgeStyle;rounded=0;orthogonalLoop=1;jettySize=auto;startArrow=blockThin;startFill=1;endArrow=blockThin;endFill=1;strokeWidth=1;" parent="1" source="-QNfoEiQIN1xO6m_8FKs-5" target="-QNfoEiQIN1xO6m_8FKs-6" edge="1">
          <mxGeometry relative="1" as="geometry" />
        </mxCell>
        <mxCell id="-QNfoEiQIN1xO6m_8FKs-5" value="API Module" style="rounded=1;align=center;verticalAlign=top;fontSize=10;fontStyle=0;fillColor=#dae8fc;strokeColor=#6c8ebf;" parent="1" vertex="1">
          <mxGeometry x="270" y="318.01" width="70.0786" height="122.83439999999999" as="geometry" />
        </mxCell>
        <mxCell id="-QNfoEiQIN1xO6m_8FKs-6" value="Traffic&#xa;Simulation&#xa;Model" style="rounded=1;align=center;verticalAlign=middle;fontSize=10;fontStyle=0;fillColor=#fff2cc;strokeColor=#d6b656;gradientColor=#ffd966;" parent="1" vertex="1">
          <mxGeometry x="170" y="343.06999999999994" width="70.08" height="70.866" as="geometry" />
        </mxCell>
        <mxCell id="-QNfoEiQIN1xO6m_8FKs-7" value="UDP Socket" style="rounded=1;align=center;verticalAlign=middle;fillColor=#d5e8d4;strokeColor=#82b366;fontSize=10;fontStyle=0;" parent="1" vertex="1">
          <mxGeometry x="388" y="356.15" width="64.21" height="43.71" as="geometry" />
        </mxCell>
        <mxCell id="-QNfoEiQIN1xO6m_8FKs-8" value="ROS: on-vehicle simulation" style="rounded=1;align=center;verticalAlign=top;fontSize=11;fontStyle=0;strokeColor=#666666;fillColor=#f5f5f5;fontColor=#333333;glass=0;" parent="1" vertex="1">
          <mxGeometry x="480" y="290" width="200" height="157.48" as="geometry" />
        </mxCell>
        <mxCell id="-QNfoEiQIN1xO6m_8FKs-9" value="Receive" style="rounded=1;align=center;verticalAlign=top;fontSize=10;fontStyle=0;fillColor=#dae8fc;strokeColor=#6c8ebf;" parent="1" vertex="1">
          <mxGeometry x="499.93" y="318.01" width="70.866" height="52.99" as="geometry" />
        </mxCell>
        <mxCell id="-QNfoEiQIN1xO6m_8FKs-10" value="On-Vehicle &#xa;Simulation&#xa;Model" style="rounded=1;align=center;verticalAlign=middle;fontSize=10;fontStyle=0;fillColor=#fff2cc;strokeColor=#d6b656;gradientColor=#ffd966;" parent="1" vertex="1">
          <mxGeometry x="600" y="338" width="60" height="70.87" as="geometry" />
        </mxCell>
        <mxCell id="-QNfoEiQIN1xO6m_8FKs-11" value="" style="rounded=0;orthogonalLoop=1;jettySize=auto;startArrow=blockThin;startFill=1;endArrow=none;endFill=0;strokeWidth=1;entryX=1.003;entryY=0.49;entryDx=0;entryDy=0;exitX=-0.012;exitY=0.247;exitDx=0;exitDy=0;exitPerimeter=0;entryPerimeter=0;" parent="1" source="-QNfoEiQIN1xO6m_8FKs-7" target="-QNfoEiQIN1xO6m_8FKs-2" edge="1">
          <mxGeometry relative="1" as="geometry">
            <mxPoint x="390" y="367" as="sourcePoint" />
            <mxPoint x="350" y="367" as="targetPoint" />
          </mxGeometry>
        </mxCell>
        <mxCell id="-QNfoEiQIN1xO6m_8FKs-12" value="" style="rounded=0;orthogonalLoop=1;jettySize=auto;startArrow=blockThin;startFill=1;endArrow=none;endFill=0;strokeWidth=1;entryX=1;entryY=0.25;entryDx=0;entryDy=0;" parent="1" target="-QNfoEiQIN1xO6m_8FKs-7" edge="1">
          <mxGeometry relative="1" as="geometry">
            <mxPoint x="481.0000000000001" y="367" as="sourcePoint" />
            <mxPoint x="340" y="377.0775" as="targetPoint" />
          </mxGeometry>
        </mxCell>
        <mxCell id="-QNfoEiQIN1xO6m_8FKs-13" value="" style="edgeStyle=orthogonalEdgeStyle;rounded=0;orthogonalLoop=1;jettySize=auto;startArrow=none;startFill=0;endArrow=blockThin;endFill=1;strokeWidth=1;entryX=1;entryY=0.5;entryDx=0;entryDy=0;exitX=0;exitY=0.75;exitDx=0;exitDy=0;" parent="1" source="-QNfoEiQIN1xO6m_8FKs-10" target="-QNfoEiQIN1xO6m_8FKs-44" edge="1">
          <mxGeometry relative="1" as="geometry">
            <mxPoint x="616" y="396" as="sourcePoint" />
            <mxPoint x="464.2099999999998" y="377.0775000000001" as="targetPoint" />
            <Array as="points">
              <mxPoint x="584" y="391" />
              <mxPoint x="584" y="403" />
            </Array>
          </mxGeometry>
        </mxCell>
        <mxCell id="-QNfoEiQIN1xO6m_8FKs-14" value="" style="edgeStyle=orthogonalEdgeStyle;rounded=0;orthogonalLoop=1;jettySize=auto;startArrow=none;startFill=0;endArrow=none;endFill=0;strokeWidth=1;" parent="1" edge="1">
          <mxGeometry relative="1" as="geometry">
            <mxPoint x="542.0000000000001" y="366.9999999999999" as="sourcePoint" />
            <mxPoint x="480.0000000000001" y="366.9999999999999" as="targetPoint" />
          </mxGeometry>
        </mxCell>
        <mxCell id="-QNfoEiQIN1xO6m_8FKs-15" value="/topic_2" style="edgeLabel;align=center;verticalAlign=middle;resizable=0;points=[];fontSize=8;labelBackgroundColor=none;" parent="-QNfoEiQIN1xO6m_8FKs-14" vertex="1" connectable="0">
          <mxGeometry x="-0.195" y="2" relative="1" as="geometry">
            <mxPoint x="11" y="-8" as="offset" />
          </mxGeometry>
        </mxCell>
        <mxCell id="-QNfoEiQIN1xO6m_8FKs-16" value="" style="rounded=0;orthogonalLoop=1;jettySize=auto;startArrow=none;startFill=0;endArrow=none;endFill=0;strokeWidth=1;" parent="1" edge="1">
          <mxGeometry relative="1" as="geometry">
            <mxPoint x="542.0000000000001" y="347.9999999999999" as="sourcePoint" />
            <mxPoint x="500.0000000000001" y="348.49" as="targetPoint" />
          </mxGeometry>
        </mxCell>
        <mxCell id="-QNfoEiQIN1xO6m_8FKs-17" value="/topic_1" style="edgeLabel;align=center;verticalAlign=middle;resizable=0;points=[];fontSize=8;labelBackgroundColor=none;" parent="-QNfoEiQIN1xO6m_8FKs-16" vertex="1" connectable="0">
          <mxGeometry x="-0.195" y="2" relative="1" as="geometry">
            <mxPoint x="2.9400000000000004" y="-7.49" as="offset" />
          </mxGeometry>
        </mxCell>
        <mxCell id="-QNfoEiQIN1xO6m_8FKs-18" value="" style="rounded=0;orthogonalLoop=1;jettySize=auto;startArrow=none;startFill=0;endArrow=none;endFill=0;strokeWidth=1;entryX=-0.003;entryY=0.494;entryDx=0;entryDy=0;exitX=-0.001;exitY=0.569;exitDx=0;exitDy=0;entryPerimeter=0;exitPerimeter=0;" parent="1" source="-QNfoEiQIN1xO6m_8FKs-9" target="-QNfoEiQIN1xO6m_8FKs-8" edge="1">
          <mxGeometry relative="1" as="geometry">
            <mxPoint x="490.8399999999999" y="377.12" as="sourcePoint" />
            <mxPoint x="464.2099999999999" y="377.0775" as="targetPoint" />
          </mxGeometry>
        </mxCell>
        <mxCell id="-QNfoEiQIN1xO6m_8FKs-24" value="" style="edgeStyle=orthogonalEdgeStyle;rounded=0;orthogonalLoop=1;jettySize=auto;startArrow=none;startFill=0;endArrow=blockThin;endFill=1;strokeWidth=1;entryX=0.999;entryY=0.776;entryDx=0;entryDy=0;entryPerimeter=0;" parent="1" target="-QNfoEiQIN1xO6m_8FKs-7" edge="1">
          <mxGeometry relative="1" as="geometry">
            <mxPoint x="480.0000000000001" y="390" as="sourcePoint" />
            <mxPoint x="460" y="390" as="targetPoint" />
            <Array as="points">
              <mxPoint x="467" y="390" />
            </Array>
          </mxGeometry>
        </mxCell>
        <mxCell id="-QNfoEiQIN1xO6m_8FKs-25" value="" style="edgeStyle=orthogonalEdgeStyle;rounded=0;orthogonalLoop=1;jettySize=auto;startArrow=none;startFill=0;endArrow=blockThin;endFill=1;strokeWidth=1;entryX=0.998;entryY=0.637;entryDx=0;entryDy=0;entryPerimeter=0;exitX=0.003;exitY=0.771;exitDx=0;exitDy=0;exitPerimeter=0;" parent="1" source="-QNfoEiQIN1xO6m_8FKs-7" target="-QNfoEiQIN1xO6m_8FKs-2" edge="1">
          <mxGeometry relative="1" as="geometry">
            <mxPoint x="380" y="390" as="sourcePoint" />
            <mxPoint x="364.1457899999999" y="390.06895999999995" as="targetPoint" />
            <Array as="points">
              <mxPoint x="377" y="390" />
            </Array>
          </mxGeometry>
        </mxCell>
        <mxCell id="-QNfoEiQIN1xO6m_8FKs-26" value="" style="edgeStyle=orthogonalEdgeStyle;rounded=0;orthogonalLoop=1;jettySize=auto;startArrow=none;startFill=0;endArrow=none;endFill=0;strokeWidth=1;" parent="1" edge="1">
          <mxGeometry relative="1" as="geometry">
            <mxPoint x="361.0000000000001" y="366.9999999999998" as="sourcePoint" />
            <mxPoint x="299.0000000000001" y="366.9999999999998" as="targetPoint" />
            <Array as="points">
              <mxPoint x="339" y="367" />
              <mxPoint x="339" y="367" />
            </Array>
          </mxGeometry>
        </mxCell>
        <mxCell id="-QNfoEiQIN1xO6m_8FKs-27" value="/Info_2" style="edgeLabel;align=center;verticalAlign=middle;resizable=0;points=[];fontSize=8;labelBackgroundColor=none;" parent="-QNfoEiQIN1xO6m_8FKs-26" vertex="1" connectable="0">
          <mxGeometry x="-0.195" y="2" relative="1" as="geometry">
            <mxPoint x="-25.03" y="-7" as="offset" />
          </mxGeometry>
        </mxCell>
        <mxCell id="-QNfoEiQIN1xO6m_8FKs-28" value="" style="rounded=0;orthogonalLoop=1;jettySize=auto;startArrow=none;startFill=0;endArrow=none;endFill=0;strokeWidth=1;entryX=-0.003;entryY=0.494;entryDx=0;entryDy=0;exitX=0.001;exitY=0.255;exitDx=0;exitDy=0;entryPerimeter=0;exitPerimeter=0;" parent="1" edge="1">
          <mxGeometry relative="1" as="geometry">
            <mxPoint x="360.65007" y="390.00245000000007" as="sourcePoint" />
            <mxPoint x="340.08000000000004" y="409.42512" as="targetPoint" />
          </mxGeometry>
        </mxCell>
        <mxCell id="-QNfoEiQIN1xO6m_8FKs-29" value="" style="rounded=0;orthogonalLoop=1;jettySize=auto;startArrow=none;startFill=0;endArrow=none;endFill=0;strokeWidth=1;exitX=0.001;exitY=0.255;exitDx=0;exitDy=0;exitPerimeter=0;entryX=0.992;entryY=0.237;entryDx=0;entryDy=0;entryPerimeter=0;" parent="1" target="-QNfoEiQIN1xO6m_8FKs-5" edge="1">
          <mxGeometry relative="1" as="geometry">
            <mxPoint x="360.1630000000001" y="366.58254999999986" as="sourcePoint" />
            <mxPoint x="339.52" y="346.06728" as="targetPoint" />
          </mxGeometry>
        </mxCell>
        <mxCell id="-QNfoEiQIN1xO6m_8FKs-30" value="" style="edgeStyle=orthogonalEdgeStyle;rounded=0;orthogonalLoop=1;jettySize=auto;startArrow=none;startFill=0;endArrow=none;endFill=0;strokeWidth=1;" parent="1" edge="1">
          <mxGeometry relative="1" as="geometry">
            <mxPoint x="319.0000000000001" y="347" as="sourcePoint" />
            <mxPoint x="299.0000000000001" y="346.9999999999998" as="targetPoint" />
            <Array as="points">
              <mxPoint x="340.08" y="347" />
              <mxPoint x="340.08" y="347" />
            </Array>
          </mxGeometry>
        </mxCell>
        <mxCell id="-QNfoEiQIN1xO6m_8FKs-31" value="/Info_1" style="edgeLabel;align=center;verticalAlign=middle;resizable=0;points=[];fontSize=8;labelBackgroundColor=none;" parent="-QNfoEiQIN1xO6m_8FKs-30" vertex="1" connectable="0">
          <mxGeometry x="-0.195" y="2" relative="1" as="geometry">
            <mxPoint x="-24.120000000000005" y="-7" as="offset" />
          </mxGeometry>
        </mxCell>
        <mxCell id="-QNfoEiQIN1xO6m_8FKs-32" value="" style="edgeStyle=orthogonalEdgeStyle;rounded=0;orthogonalLoop=1;jettySize=auto;startArrow=none;startFill=0;endArrow=none;endFill=0;strokeWidth=1;" parent="1" edge="1">
          <mxGeometry relative="1" as="geometry">
            <mxPoint x="360.0000000000001" y="389.9999999999998" as="sourcePoint" />
            <mxPoint x="298.0000000000001" y="389.9999999999998" as="targetPoint" />
            <Array as="points">
              <mxPoint x="338" y="390" />
              <mxPoint x="338" y="390" />
            </Array>
          </mxGeometry>
        </mxCell>
        <mxCell id="-QNfoEiQIN1xO6m_8FKs-33" value="/Info_3" style="edgeLabel;align=center;verticalAlign=middle;resizable=0;points=[];fontSize=8;labelBackgroundColor=none;" parent="-QNfoEiQIN1xO6m_8FKs-32" vertex="1" connectable="0">
          <mxGeometry x="-0.195" y="2" relative="1" as="geometry">
            <mxPoint x="-23.03" y="-7" as="offset" />
          </mxGeometry>
        </mxCell>
        <mxCell id="-QNfoEiQIN1xO6m_8FKs-34" value="" style="edgeStyle=orthogonalEdgeStyle;rounded=0;orthogonalLoop=1;jettySize=auto;startArrow=none;startFill=0;endArrow=none;endFill=0;strokeWidth=1;" parent="1" edge="1">
          <mxGeometry relative="1" as="geometry">
            <mxPoint x="319.0000000000001" y="409" as="sourcePoint" />
            <mxPoint x="299.0000000000001" y="408.9999999999998" as="targetPoint" />
            <Array as="points">
              <mxPoint x="340.08" y="409" />
              <mxPoint x="340.08" y="409" />
            </Array>
          </mxGeometry>
        </mxCell>
        <mxCell id="-QNfoEiQIN1xO6m_8FKs-35" value="/Info_4" style="edgeLabel;align=center;verticalAlign=middle;resizable=0;points=[];fontSize=8;labelBackgroundColor=none;" parent="-QNfoEiQIN1xO6m_8FKs-34" vertex="1" connectable="0">
          <mxGeometry x="-0.195" y="2" relative="1" as="geometry">
            <mxPoint x="-24.120000000000005" y="-7" as="offset" />
          </mxGeometry>
        </mxCell>
        <mxCell id="-QNfoEiQIN1xO6m_8FKs-36" value="Serialized&#xa;Data &#xa;Streams" style="text;resizable=0;autosize=1;align=center;verticalAlign=middle;points=[];fillColor=none;strokeColor=none;rounded=0;labelBackgroundColor=none;fontSize=9;" parent="1" vertex="1">
          <mxGeometry x="363.11000000000007" y="303.07000000000005" width="50" height="40" as="geometry" />
        </mxCell>
        <mxCell id="-QNfoEiQIN1xO6m_8FKs-37" value="" style="edgeStyle=orthogonalEdgeStyle;rounded=0;orthogonalLoop=1;jettySize=auto;startArrow=blockThin;startFill=1;endArrow=none;endFill=0;strokeWidth=1;entryX=0.005;entryY=0.502;entryDx=0;entryDy=0;entryPerimeter=0;" parent="1" target="-QNfoEiQIN1xO6m_8FKs-36" edge="1">
          <mxGeometry relative="1" as="geometry">
            <mxPoint x="347.0000000000001" y="350" as="sourcePoint" />
            <mxPoint x="557" y="398.505" as="targetPoint" />
            <Array as="points">
              <mxPoint x="347" y="350" />
              <mxPoint x="347" y="305" />
            </Array>
          </mxGeometry>
        </mxCell>
        <mxCell id="-QNfoEiQIN1xO6m_8FKs-38" value="" style="edgeStyle=orthogonalEdgeStyle;rounded=0;orthogonalLoop=1;jettySize=auto;startArrow=blockThin;startFill=1;endArrow=none;endFill=0;strokeWidth=1;entryX=0;entryY=0.5;entryDx=0;entryDy=0;" parent="1" target="-QNfoEiQIN1xO6m_8FKs-43" edge="1">
          <mxGeometry relative="1" as="geometry">
            <mxPoint x="348.11" y="404.53999999999996" as="sourcePoint" />
            <mxPoint x="360.11" y="434" as="targetPoint" />
            <Array as="points">
              <mxPoint x="348" y="433" />
              <mxPoint x="363" y="433" />
            </Array>
          </mxGeometry>
        </mxCell>
        <mxCell id="-QNfoEiQIN1xO6m_8FKs-39" value="Serialized&#xa;Data &#xa;Streams" style="text;resizable=0;autosize=1;align=center;verticalAlign=middle;points=[];fillColor=none;strokeColor=none;rounded=0;labelBackgroundColor=none;fontSize=9;" parent="1" vertex="1">
          <mxGeometry x="428.00000000000006" y="413.48" width="50" height="40" as="geometry" />
        </mxCell>
        <mxCell id="-QNfoEiQIN1xO6m_8FKs-41" value="" style="edgeStyle=orthogonalEdgeStyle;rounded=0;orthogonalLoop=1;jettySize=auto;startArrow=blockThin;startFill=1;endArrow=none;endFill=0;strokeWidth=1;entryX=1;entryY=0.5;entryDx=0;entryDy=0;" parent="1" target="-QNfoEiQIN1xO6m_8FKs-42" edge="1">
          <mxGeometry relative="1" as="geometry">
            <mxPoint x="490.0000000000001" y="353" as="sourcePoint" />
            <mxPoint x="478.7655" y="325.95000000000005" as="targetPoint" />
            <Array as="points">
              <mxPoint x="490" y="324" />
            </Array>
          </mxGeometry>
        </mxCell>
        <mxCell id="-QNfoEiQIN1xO6m_8FKs-42" value="Deserialized&#xa;Data&#xa;Streams" style="rounded=1;align=center;verticalAlign=middle;fontSize=9;fontStyle=0;fillColor=none;strokeColor=none;" parent="1" vertex="1">
          <mxGeometry x="421.79" y="303.6700000000001" width="54.21" height="38.79" as="geometry" />
        </mxCell>
        <mxCell id="-QNfoEiQIN1xO6m_8FKs-43" value="Deserialized&#xa;Data&#xa;Streams" style="rounded=1;align=center;verticalAlign=middle;fontSize=9;fontStyle=0;fillColor=none;strokeColor=none;" parent="1" vertex="1">
          <mxGeometry x="363.11" y="414.09000000000003" width="54.21" height="38.79" as="geometry" />
        </mxCell>
        <mxCell id="-QNfoEiQIN1xO6m_8FKs-44" value="Transmit" style="rounded=1;align=center;verticalAlign=bottom;fontSize=10;fontStyle=0;fillColor=#dae8fc;strokeColor=#6c8ebf;" parent="1" vertex="1">
          <mxGeometry x="499.93" y="376" width="70.866" height="52.99" as="geometry" />
        </mxCell>
        <mxCell id="-QNfoEiQIN1xO6m_8FKs-19" value="" style="edgeStyle=orthogonalEdgeStyle;rounded=0;orthogonalLoop=1;jettySize=auto;startArrow=none;startFill=0;endArrow=none;endFill=0;strokeWidth=1;" parent="1" edge="1">
          <mxGeometry relative="1" as="geometry">
            <mxPoint x="542.0000000000001" y="389.9999999999999" as="sourcePoint" />
            <mxPoint x="480.0000000000001" y="389.9999999999999" as="targetPoint" />
          </mxGeometry>
        </mxCell>
        <mxCell id="-QNfoEiQIN1xO6m_8FKs-20" value="/topic_3" style="edgeLabel;align=center;verticalAlign=middle;resizable=0;points=[];fontSize=8;labelBackgroundColor=none;" parent="-QNfoEiQIN1xO6m_8FKs-19" vertex="1" connectable="0">
          <mxGeometry x="-0.195" y="2" relative="1" as="geometry">
            <mxPoint x="11" y="-8" as="offset" />
          </mxGeometry>
        </mxCell>
        <mxCell id="-QNfoEiQIN1xO6m_8FKs-21" value="" style="rounded=0;orthogonalLoop=1;jettySize=auto;startArrow=none;startFill=0;endArrow=none;endFill=0;strokeWidth=1;" parent="1" edge="1">
          <mxGeometry relative="1" as="geometry">
            <mxPoint x="542.6300000000002" y="409.9999999999999" as="sourcePoint" />
            <mxPoint x="500.63" y="410.49" as="targetPoint" />
          </mxGeometry>
        </mxCell>
        <mxCell id="-QNfoEiQIN1xO6m_8FKs-22" value="/topic_4" style="edgeLabel;align=center;verticalAlign=middle;resizable=0;points=[];fontSize=8;labelBackgroundColor=none;" parent="-QNfoEiQIN1xO6m_8FKs-21" vertex="1" connectable="0">
          <mxGeometry x="-0.195" y="2" relative="1" as="geometry">
            <mxPoint x="2.9400000000000004" y="-7.49" as="offset" />
          </mxGeometry>
        </mxCell>
        <mxCell id="-QNfoEiQIN1xO6m_8FKs-23" value="" style="rounded=0;orthogonalLoop=1;jettySize=auto;startArrow=none;startFill=0;endArrow=none;endFill=0;strokeWidth=1;exitX=0.001;exitY=0.255;exitDx=0;exitDy=0;exitPerimeter=0;entryX=0;entryY=0.636;entryDx=0;entryDy=0;entryPerimeter=0;" parent="1" target="-QNfoEiQIN1xO6m_8FKs-8" edge="1">
          <mxGeometry relative="1" as="geometry">
            <mxPoint x="500.64300000000014" y="410.6725499999999" as="sourcePoint" />
            <mxPoint x="480" y="391" as="targetPoint" />
          </mxGeometry>
        </mxCell>
        <mxCell id="-QNfoEiQIN1xO6m_8FKs-40" value="" style="edgeStyle=orthogonalEdgeStyle;rounded=0;orthogonalLoop=1;jettySize=auto;startArrow=blockThin;startFill=1;endArrow=none;endFill=0;strokeWidth=1;entryX=1.004;entryY=0.5;entryDx=0;entryDy=0;entryPerimeter=0;" parent="1" target="-QNfoEiQIN1xO6m_8FKs-39" edge="1">
          <mxGeometry relative="1" as="geometry">
            <mxPoint x="491.0000000000001" y="406" as="sourcePoint" />
            <mxPoint x="661" y="470.375" as="targetPoint" />
            <Array as="points">
              <mxPoint x="491" y="433" />
              <mxPoint x="478" y="433" />
            </Array>
          </mxGeometry>
        </mxCell>
        <mxCell id="-QNfoEiQIN1xO6m_8FKs-45" value="" style="edgeStyle=orthogonalEdgeStyle;rounded=0;orthogonalLoop=1;jettySize=auto;startArrow=none;startFill=0;endArrow=blockThin;endFill=1;strokeWidth=1;exitX=1;exitY=0.5;exitDx=0;exitDy=0;entryX=0;entryY=0.25;entryDx=0;entryDy=0;" parent="1" source="-QNfoEiQIN1xO6m_8FKs-9" target="-QNfoEiQIN1xO6m_8FKs-10" edge="1">
          <mxGeometry relative="1" as="geometry">
            <mxPoint x="626.0999999999999" y="406.2225" as="sourcePoint" />
            <mxPoint x="615" y="364" as="targetPoint" />
            <Array as="points">
              <mxPoint x="585" y="345" />
              <mxPoint x="585" y="356" />
            </Array>
          </mxGeometry>
        </mxCell>
        <mxCell id="-QNfoEiQIN1xO6m_8FKs-46" value="Receive" style="rounded=1;align=center;verticalAlign=top;fontSize=10;fontStyle=0;fillColor=#dae8fc;strokeColor=#6c8ebf;" parent="1" vertex="1">
          <mxGeometry x="482" y="570" width="68.17" height="42" as="geometry" />
        </mxCell>
        <mxCell id="-QNfoEiQIN1xO6m_8FKs-47" value="Transmit" style="rounded=1;align=center;verticalAlign=bottom;fontSize=10;fontStyle=0;fillColor=#dae8fc;strokeColor=#6c8ebf;" parent="1" vertex="1">
          <mxGeometry x="482" y="619" width="68" height="50" as="geometry" />
        </mxCell>
        <mxCell id="K6NKCnMjnbAVRSnIbpeF-46" value="" style="edgeStyle=orthogonalEdgeStyle;rounded=0;orthogonalLoop=1;jettySize=auto;startArrow=none;startFill=0;endArrow=none;endFill=0;strokeWidth=1;" parent="1" edge="1">
          <mxGeometry relative="1" as="geometry">
            <mxPoint x="545" y="607" as="sourcePoint" />
            <mxPoint x="473.89999999999975" y="607" as="targetPoint" />
          </mxGeometry>
        </mxCell>
        <mxCell id="K6NKCnMjnbAVRSnIbpeF-47" value="TrafficInf" style="edgeLabel;align=center;verticalAlign=middle;resizable=0;points=[];fontSize=8;labelBackgroundColor=none;" parent="K6NKCnMjnbAVRSnIbpeF-46" vertex="1" connectable="0">
          <mxGeometry x="-0.195" y="2" relative="1" as="geometry">
            <mxPoint x="12" y="-7" as="offset" />
          </mxGeometry>
        </mxCell>
        <mxCell id="K6NKCnMjnbAVRSnIbpeF-51" value="" style="edgeStyle=orthogonalEdgeStyle;rounded=0;orthogonalLoop=1;jettySize=auto;startArrow=none;startFill=0;endArrow=none;endFill=0;strokeWidth=1;" parent="1" edge="1">
          <mxGeometry relative="1" as="geometry">
            <mxPoint x="545" y="630" as="sourcePoint" />
            <mxPoint x="473.89999999999975" y="630" as="targetPoint" />
          </mxGeometry>
        </mxCell>
        <mxCell id="K6NKCnMjnbAVRSnIbpeF-52" value="EgoVehicleInf" style="edgeLabel;align=center;verticalAlign=middle;resizable=0;points=[];fontSize=8;labelBackgroundColor=none;" parent="K6NKCnMjnbAVRSnIbpeF-51" vertex="1" connectable="0">
          <mxGeometry x="-0.195" y="2" relative="1" as="geometry">
            <mxPoint x="4" y="-7" as="offset" />
          </mxGeometry>
        </mxCell>
        <mxCell id="FIuZF2IC0c6RJkiDbf_0-9" value="" style="edgeStyle=orthogonalEdgeStyle;rounded=0;orthogonalLoop=1;jettySize=auto;startArrow=none;startFill=0;endArrow=none;endFill=0;strokeWidth=1;fillColor=#dae8fc;strokeColor=#3333FF;" parent="1" edge="1">
          <mxGeometry relative="1" as="geometry">
            <mxPoint x="545.0999999999999" y="650" as="sourcePoint" />
            <mxPoint x="473.9999999999998" y="650" as="targetPoint" />
          </mxGeometry>
        </mxCell>
        <mxCell id="FIuZF2IC0c6RJkiDbf_0-10" value="DrivingInf" style="edgeLabel;align=center;verticalAlign=middle;resizable=0;points=[];fontSize=8;labelBackgroundColor=none;" parent="FIuZF2IC0c6RJkiDbf_0-9" vertex="1" connectable="0">
          <mxGeometry x="-0.195" y="2" relative="1" as="geometry">
            <mxPoint x="10" y="-7" as="offset" />
          </mxGeometry>
        </mxCell>
      </root>
    </mxGraphModel>
  </diagram>
  <diagram id="0cfiP9lgbRmooCwSaKp9" name="old">
    <mxGraphModel dx="1673" dy="829" grid="1" gridSize="10" guides="1" tooltips="1" connect="1" arrows="1" fold="1" page="1" pageScale="1" pageWidth="850" pageHeight="1100" math="0" shadow="0">
      <root>
        <mxCell id="zubyIa7aWpSav51OET3G-0" />
        <mxCell id="zubyIa7aWpSav51OET3G-1" parent="zubyIa7aWpSav51OET3G-0" />
        <mxCell id="Yq877jy8nlQ7mpjoUAYc-0" value="AIMSUN: traffic simulator" style="rounded=1;align=center;verticalAlign=top;fontSize=11;fontStyle=0;strokeColor=#666666;fillColor=#f5f5f5;fontColor=#333333;glass=0;" vertex="1" parent="zubyIa7aWpSav51OET3G-1">
          <mxGeometry x="200" y="380" width="200.16" height="157.48" as="geometry" />
        </mxCell>
        <mxCell id="Yq877jy8nlQ7mpjoUAYc-1" value="" style="edgeStyle=orthogonalEdgeStyle;rounded=0;orthogonalLoop=1;jettySize=auto;endArrow=blockThin;endFill=1;startArrow=blockThin;startFill=1;" edge="1" parent="zubyIa7aWpSav51OET3G-1" source="Yq877jy8nlQ7mpjoUAYc-3" target="Yq877jy8nlQ7mpjoUAYc-4">
          <mxGeometry relative="1" as="geometry" />
        </mxCell>
        <mxCell id="Yq877jy8nlQ7mpjoUAYc-2" value="" style="edgeStyle=orthogonalEdgeStyle;rounded=0;orthogonalLoop=1;jettySize=auto;startArrow=blockThin;startFill=1;endArrow=blockThin;endFill=1;strokeWidth=1;" edge="1" parent="zubyIa7aWpSav51OET3G-1" source="Yq877jy8nlQ7mpjoUAYc-3" target="Yq877jy8nlQ7mpjoUAYc-4">
          <mxGeometry relative="1" as="geometry" />
        </mxCell>
        <mxCell id="Yq877jy8nlQ7mpjoUAYc-3" value="API Module" style="rounded=1;align=center;verticalAlign=top;fontSize=10;fontStyle=0;fillColor=#dae8fc;strokeColor=#6c8ebf;" vertex="1" parent="zubyIa7aWpSav51OET3G-1">
          <mxGeometry x="310" y="408.01" width="70.0786" height="122.83439999999999" as="geometry" />
        </mxCell>
        <mxCell id="Yq877jy8nlQ7mpjoUAYc-4" value="Traffic&#xa;Simulation&#xa;Model" style="rounded=1;align=center;verticalAlign=middle;fontSize=10;fontStyle=0;fillColor=#fff2cc;strokeColor=#d6b656;gradientColor=#ffd966;" vertex="1" parent="zubyIa7aWpSav51OET3G-1">
          <mxGeometry x="210" y="433.06999999999994" width="70.08" height="70.866" as="geometry" />
        </mxCell>
        <mxCell id="Yq877jy8nlQ7mpjoUAYc-5" value="UDP Socket" style="rounded=1;align=center;verticalAlign=middle;fillColor=#d5e8d4;strokeColor=#82b366;fontSize=10;fontStyle=0;" vertex="1" parent="zubyIa7aWpSav51OET3G-1">
          <mxGeometry x="428" y="446.15" width="64.21" height="43.71" as="geometry" />
        </mxCell>
        <mxCell id="Yq877jy8nlQ7mpjoUAYc-6" value="ROS: external vehicle motion" style="rounded=1;align=center;verticalAlign=top;fontSize=11;fontStyle=0;strokeColor=#666666;fillColor=#f5f5f5;fontColor=#333333;glass=0;" vertex="1" parent="zubyIa7aWpSav51OET3G-1">
          <mxGeometry x="520" y="380" width="206.1" height="157.48" as="geometry" />
        </mxCell>
        <mxCell id="Yq877jy8nlQ7mpjoUAYc-7" value="Communication" style="rounded=1;align=center;verticalAlign=top;fontSize=10;fontStyle=0;fillColor=#dae8fc;strokeColor=#6c8ebf;" vertex="1" parent="zubyIa7aWpSav51OET3G-1">
          <mxGeometry x="539.9300000000001" y="407.01" width="86.17" height="122.99" as="geometry" />
        </mxCell>
        <mxCell id="Yq877jy8nlQ7mpjoUAYc-8" value="Ego-Vehicle&#xa;Feeddback&#xa;Loop" style="rounded=1;align=center;verticalAlign=middle;fontSize=10;fontStyle=0;fillColor=#fff2cc;strokeColor=#d6b656;gradientColor=#ffd966;" vertex="1" parent="zubyIa7aWpSav51OET3G-1">
          <mxGeometry x="656.0999999999999" y="433.06999999999994" width="60" height="70.87" as="geometry" />
        </mxCell>
        <mxCell id="Yq877jy8nlQ7mpjoUAYc-9" value="" style="rounded=0;orthogonalLoop=1;jettySize=auto;startArrow=blockThin;startFill=1;endArrow=none;endFill=0;strokeWidth=1;entryX=1.003;entryY=0.49;entryDx=0;entryDy=0;exitX=-0.012;exitY=0.247;exitDx=0;exitDy=0;exitPerimeter=0;entryPerimeter=0;" edge="1" parent="zubyIa7aWpSav51OET3G-1" source="Yq877jy8nlQ7mpjoUAYc-5" target="Yq877jy8nlQ7mpjoUAYc-0">
          <mxGeometry relative="1" as="geometry">
            <mxPoint x="430" y="457" as="sourcePoint" />
            <mxPoint x="390" y="457" as="targetPoint" />
          </mxGeometry>
        </mxCell>
        <mxCell id="Yq877jy8nlQ7mpjoUAYc-10" value="" style="rounded=0;orthogonalLoop=1;jettySize=auto;startArrow=blockThin;startFill=1;endArrow=none;endFill=0;strokeWidth=1;entryX=1;entryY=0.25;entryDx=0;entryDy=0;" edge="1" parent="zubyIa7aWpSav51OET3G-1" target="Yq877jy8nlQ7mpjoUAYc-5">
          <mxGeometry relative="1" as="geometry">
            <mxPoint x="521" y="457" as="sourcePoint" />
            <mxPoint x="380" y="467.0774999999999" as="targetPoint" />
          </mxGeometry>
        </mxCell>
        <mxCell id="Yq877jy8nlQ7mpjoUAYc-11" value="" style="edgeStyle=orthogonalEdgeStyle;rounded=0;orthogonalLoop=1;jettySize=auto;startArrow=blockThin;startFill=1;endArrow=blockThin;endFill=1;strokeWidth=1;entryX=1;entryY=0.5;entryDx=0;entryDy=0;" edge="1" parent="zubyIa7aWpSav51OET3G-1" source="Yq877jy8nlQ7mpjoUAYc-8" target="Yq877jy8nlQ7mpjoUAYc-7">
          <mxGeometry relative="1" as="geometry">
            <mxPoint x="546.1800000000001" y="466.55999999999995" as="sourcePoint" />
            <mxPoint x="504.2099999999998" y="467.0775000000001" as="targetPoint" />
          </mxGeometry>
        </mxCell>
        <mxCell id="Yq877jy8nlQ7mpjoUAYc-12" value="" style="edgeStyle=orthogonalEdgeStyle;rounded=0;orthogonalLoop=1;jettySize=auto;startArrow=none;startFill=0;endArrow=none;endFill=0;strokeWidth=1;" edge="1" parent="zubyIa7aWpSav51OET3G-1">
          <mxGeometry relative="1" as="geometry">
            <mxPoint x="582" y="457" as="sourcePoint" />
            <mxPoint x="520" y="457" as="targetPoint" />
          </mxGeometry>
        </mxCell>
        <mxCell id="Yq877jy8nlQ7mpjoUAYc-13" value="/topic_2" style="edgeLabel;align=center;verticalAlign=middle;resizable=0;points=[];fontSize=8;labelBackgroundColor=none;" vertex="1" connectable="0" parent="Yq877jy8nlQ7mpjoUAYc-12">
          <mxGeometry x="-0.195" y="2" relative="1" as="geometry">
            <mxPoint x="11" y="-10" as="offset" />
          </mxGeometry>
        </mxCell>
        <mxCell id="Yq877jy8nlQ7mpjoUAYc-14" value="" style="rounded=0;orthogonalLoop=1;jettySize=auto;startArrow=none;startFill=0;endArrow=none;endFill=0;strokeWidth=1;" edge="1" parent="zubyIa7aWpSav51OET3G-1">
          <mxGeometry relative="1" as="geometry">
            <mxPoint x="582" y="438" as="sourcePoint" />
            <mxPoint x="540" y="438.49" as="targetPoint" />
          </mxGeometry>
        </mxCell>
        <mxCell id="Yq877jy8nlQ7mpjoUAYc-15" value="/topic_1" style="edgeLabel;align=center;verticalAlign=middle;resizable=0;points=[];fontSize=8;labelBackgroundColor=none;" vertex="1" connectable="0" parent="Yq877jy8nlQ7mpjoUAYc-14">
          <mxGeometry x="-0.195" y="2" relative="1" as="geometry">
            <mxPoint x="2.9400000000000004" y="-8.49" as="offset" />
          </mxGeometry>
        </mxCell>
        <mxCell id="Yq877jy8nlQ7mpjoUAYc-16" value="" style="rounded=0;orthogonalLoop=1;jettySize=auto;startArrow=none;startFill=0;endArrow=none;endFill=0;strokeWidth=1;entryX=-0.003;entryY=0.494;entryDx=0;entryDy=0;exitX=0.001;exitY=0.255;exitDx=0;exitDy=0;entryPerimeter=0;exitPerimeter=0;" edge="1" parent="zubyIa7aWpSav51OET3G-1" source="Yq877jy8nlQ7mpjoUAYc-7" target="Yq877jy8nlQ7mpjoUAYc-6">
          <mxGeometry relative="1" as="geometry">
            <mxPoint x="530.8399999999999" y="467.1199999999999" as="sourcePoint" />
            <mxPoint x="504.2099999999999" y="467.0774999999999" as="targetPoint" />
          </mxGeometry>
        </mxCell>
        <mxCell id="Yq877jy8nlQ7mpjoUAYc-17" value="" style="edgeStyle=orthogonalEdgeStyle;rounded=0;orthogonalLoop=1;jettySize=auto;startArrow=none;startFill=0;endArrow=none;endFill=0;strokeWidth=1;" edge="1" parent="zubyIa7aWpSav51OET3G-1">
          <mxGeometry relative="1" as="geometry">
            <mxPoint x="582" y="480" as="sourcePoint" />
            <mxPoint x="520" y="480" as="targetPoint" />
          </mxGeometry>
        </mxCell>
        <mxCell id="Yq877jy8nlQ7mpjoUAYc-18" value="/topic_3" style="edgeLabel;align=center;verticalAlign=middle;resizable=0;points=[];fontSize=8;labelBackgroundColor=none;" vertex="1" connectable="0" parent="Yq877jy8nlQ7mpjoUAYc-17">
          <mxGeometry x="-0.195" y="2" relative="1" as="geometry">
            <mxPoint x="11" y="-10" as="offset" />
          </mxGeometry>
        </mxCell>
        <mxCell id="Yq877jy8nlQ7mpjoUAYc-19" value="" style="rounded=0;orthogonalLoop=1;jettySize=auto;startArrow=none;startFill=0;endArrow=none;endFill=0;strokeWidth=1;" edge="1" parent="zubyIa7aWpSav51OET3G-1">
          <mxGeometry relative="1" as="geometry">
            <mxPoint x="582.6300000000001" y="500" as="sourcePoint" />
            <mxPoint x="540.6300000000001" y="500.49" as="targetPoint" />
          </mxGeometry>
        </mxCell>
        <mxCell id="Yq877jy8nlQ7mpjoUAYc-20" value="/topic_4" style="edgeLabel;align=center;verticalAlign=middle;resizable=0;points=[];fontSize=8;labelBackgroundColor=none;" vertex="1" connectable="0" parent="Yq877jy8nlQ7mpjoUAYc-19">
          <mxGeometry x="-0.195" y="2" relative="1" as="geometry">
            <mxPoint x="2.9400000000000004" y="-8.49" as="offset" />
          </mxGeometry>
        </mxCell>
        <mxCell id="Yq877jy8nlQ7mpjoUAYc-21" value="" style="rounded=0;orthogonalLoop=1;jettySize=auto;startArrow=none;startFill=0;endArrow=none;endFill=0;strokeWidth=1;exitX=0.001;exitY=0.255;exitDx=0;exitDy=0;exitPerimeter=0;entryX=0;entryY=0.636;entryDx=0;entryDy=0;entryPerimeter=0;" edge="1" parent="zubyIa7aWpSav51OET3G-1" target="Yq877jy8nlQ7mpjoUAYc-6">
          <mxGeometry relative="1" as="geometry">
            <mxPoint x="540.643" y="500.6725499999998" as="sourcePoint" />
            <mxPoint x="520" y="481" as="targetPoint" />
          </mxGeometry>
        </mxCell>
        <mxCell id="Yq877jy8nlQ7mpjoUAYc-22" value="" style="edgeStyle=orthogonalEdgeStyle;rounded=0;orthogonalLoop=1;jettySize=auto;startArrow=none;startFill=0;endArrow=blockThin;endFill=1;strokeWidth=1;entryX=0.999;entryY=0.776;entryDx=0;entryDy=0;entryPerimeter=0;" edge="1" parent="zubyIa7aWpSav51OET3G-1" target="Yq877jy8nlQ7mpjoUAYc-5">
          <mxGeometry relative="1" as="geometry">
            <mxPoint x="520" y="480" as="sourcePoint" />
            <mxPoint x="500" y="480" as="targetPoint" />
            <Array as="points">
              <mxPoint x="507" y="480" />
            </Array>
          </mxGeometry>
        </mxCell>
        <mxCell id="Yq877jy8nlQ7mpjoUAYc-23" value="" style="edgeStyle=orthogonalEdgeStyle;rounded=0;orthogonalLoop=1;jettySize=auto;startArrow=none;startFill=0;endArrow=blockThin;endFill=1;strokeWidth=1;entryX=0.998;entryY=0.637;entryDx=0;entryDy=0;entryPerimeter=0;exitX=0.003;exitY=0.771;exitDx=0;exitDy=0;exitPerimeter=0;" edge="1" parent="zubyIa7aWpSav51OET3G-1" source="Yq877jy8nlQ7mpjoUAYc-5" target="Yq877jy8nlQ7mpjoUAYc-0">
          <mxGeometry relative="1" as="geometry">
            <mxPoint x="420" y="480" as="sourcePoint" />
            <mxPoint x="404.1457899999999" y="480.06896000000006" as="targetPoint" />
            <Array as="points">
              <mxPoint x="417" y="480" />
            </Array>
          </mxGeometry>
        </mxCell>
        <mxCell id="Yq877jy8nlQ7mpjoUAYc-24" value="" style="edgeStyle=orthogonalEdgeStyle;rounded=0;orthogonalLoop=1;jettySize=auto;startArrow=none;startFill=0;endArrow=none;endFill=0;strokeWidth=1;" edge="1" parent="zubyIa7aWpSav51OET3G-1">
          <mxGeometry relative="1" as="geometry">
            <mxPoint x="401" y="456.9999999999998" as="sourcePoint" />
            <mxPoint x="339" y="456.9999999999998" as="targetPoint" />
            <Array as="points">
              <mxPoint x="379" y="457" />
              <mxPoint x="379" y="457" />
            </Array>
          </mxGeometry>
        </mxCell>
        <mxCell id="Yq877jy8nlQ7mpjoUAYc-25" value="/Info_2" style="edgeLabel;align=center;verticalAlign=middle;resizable=0;points=[];fontSize=8;labelBackgroundColor=none;" vertex="1" connectable="0" parent="Yq877jy8nlQ7mpjoUAYc-24">
          <mxGeometry x="-0.195" y="2" relative="1" as="geometry">
            <mxPoint x="-25.03" y="-7" as="offset" />
          </mxGeometry>
        </mxCell>
        <mxCell id="Yq877jy8nlQ7mpjoUAYc-26" value="" style="rounded=0;orthogonalLoop=1;jettySize=auto;startArrow=none;startFill=0;endArrow=none;endFill=0;strokeWidth=1;entryX=-0.003;entryY=0.494;entryDx=0;entryDy=0;exitX=0.001;exitY=0.255;exitDx=0;exitDy=0;entryPerimeter=0;exitPerimeter=0;" edge="1" parent="zubyIa7aWpSav51OET3G-1">
          <mxGeometry relative="1" as="geometry">
            <mxPoint x="400.65007000000014" y="480.00244999999995" as="sourcePoint" />
            <mxPoint x="380.0799999999999" y="499.4251199999999" as="targetPoint" />
          </mxGeometry>
        </mxCell>
        <mxCell id="Yq877jy8nlQ7mpjoUAYc-27" value="" style="rounded=0;orthogonalLoop=1;jettySize=auto;startArrow=none;startFill=0;endArrow=none;endFill=0;strokeWidth=1;exitX=0.001;exitY=0.255;exitDx=0;exitDy=0;exitPerimeter=0;entryX=0.992;entryY=0.237;entryDx=0;entryDy=0;entryPerimeter=0;" edge="1" parent="zubyIa7aWpSav51OET3G-1" target="Yq877jy8nlQ7mpjoUAYc-3">
          <mxGeometry relative="1" as="geometry">
            <mxPoint x="400.163" y="456.58254999999986" as="sourcePoint" />
            <mxPoint x="379.52" y="436.06728" as="targetPoint" />
          </mxGeometry>
        </mxCell>
        <mxCell id="Yq877jy8nlQ7mpjoUAYc-28" value="" style="edgeStyle=orthogonalEdgeStyle;rounded=0;orthogonalLoop=1;jettySize=auto;startArrow=none;startFill=0;endArrow=none;endFill=0;strokeWidth=1;" edge="1" parent="zubyIa7aWpSav51OET3G-1">
          <mxGeometry relative="1" as="geometry">
            <mxPoint x="359" y="437" as="sourcePoint" />
            <mxPoint x="339" y="436.9999999999998" as="targetPoint" />
            <Array as="points">
              <mxPoint x="380.08" y="437" />
              <mxPoint x="380.08" y="437" />
            </Array>
          </mxGeometry>
        </mxCell>
        <mxCell id="Yq877jy8nlQ7mpjoUAYc-29" value="/Info_1" style="edgeLabel;align=center;verticalAlign=middle;resizable=0;points=[];fontSize=8;labelBackgroundColor=none;" vertex="1" connectable="0" parent="Yq877jy8nlQ7mpjoUAYc-28">
          <mxGeometry x="-0.195" y="2" relative="1" as="geometry">
            <mxPoint x="-24.120000000000005" y="-7" as="offset" />
          </mxGeometry>
        </mxCell>
        <mxCell id="Yq877jy8nlQ7mpjoUAYc-30" value="" style="edgeStyle=orthogonalEdgeStyle;rounded=0;orthogonalLoop=1;jettySize=auto;startArrow=none;startFill=0;endArrow=none;endFill=0;strokeWidth=1;" edge="1" parent="zubyIa7aWpSav51OET3G-1">
          <mxGeometry relative="1" as="geometry">
            <mxPoint x="400" y="479.9999999999998" as="sourcePoint" />
            <mxPoint x="338" y="479.9999999999998" as="targetPoint" />
            <Array as="points">
              <mxPoint x="378" y="480" />
              <mxPoint x="378" y="480" />
            </Array>
          </mxGeometry>
        </mxCell>
        <mxCell id="Yq877jy8nlQ7mpjoUAYc-31" value="/Info_3" style="edgeLabel;align=center;verticalAlign=middle;resizable=0;points=[];fontSize=8;labelBackgroundColor=none;" vertex="1" connectable="0" parent="Yq877jy8nlQ7mpjoUAYc-30">
          <mxGeometry x="-0.195" y="2" relative="1" as="geometry">
            <mxPoint x="-23.03" y="-7" as="offset" />
          </mxGeometry>
        </mxCell>
        <mxCell id="Yq877jy8nlQ7mpjoUAYc-32" value="" style="edgeStyle=orthogonalEdgeStyle;rounded=0;orthogonalLoop=1;jettySize=auto;startArrow=none;startFill=0;endArrow=none;endFill=0;strokeWidth=1;" edge="1" parent="zubyIa7aWpSav51OET3G-1">
          <mxGeometry relative="1" as="geometry">
            <mxPoint x="359" y="499" as="sourcePoint" />
            <mxPoint x="339" y="498.9999999999998" as="targetPoint" />
            <Array as="points">
              <mxPoint x="380.08" y="499" />
              <mxPoint x="380.08" y="499" />
            </Array>
          </mxGeometry>
        </mxCell>
        <mxCell id="Yq877jy8nlQ7mpjoUAYc-33" value="/Info_4" style="edgeLabel;align=center;verticalAlign=middle;resizable=0;points=[];fontSize=8;labelBackgroundColor=none;" vertex="1" connectable="0" parent="Yq877jy8nlQ7mpjoUAYc-32">
          <mxGeometry x="-0.195" y="2" relative="1" as="geometry">
            <mxPoint x="-24.120000000000005" y="-7" as="offset" />
          </mxGeometry>
        </mxCell>
        <mxCell id="Yq877jy8nlQ7mpjoUAYc-34" value="Serialized&#xa;Data &#xa;Streams" style="text;resizable=0;autosize=1;align=center;verticalAlign=middle;points=[];fillColor=none;strokeColor=none;rounded=0;labelBackgroundColor=none;fontSize=9;" vertex="1" parent="zubyIa7aWpSav51OET3G-1">
          <mxGeometry x="403.11000000000007" y="393.07000000000005" width="50" height="40" as="geometry" />
        </mxCell>
        <mxCell id="Yq877jy8nlQ7mpjoUAYc-35" value="" style="edgeStyle=orthogonalEdgeStyle;rounded=0;orthogonalLoop=1;jettySize=auto;startArrow=blockThin;startFill=1;endArrow=none;endFill=0;strokeWidth=1;entryX=0.005;entryY=0.502;entryDx=0;entryDy=0;entryPerimeter=0;" edge="1" parent="zubyIa7aWpSav51OET3G-1" target="Yq877jy8nlQ7mpjoUAYc-34">
          <mxGeometry relative="1" as="geometry">
            <mxPoint x="387" y="440" as="sourcePoint" />
            <mxPoint x="596.9999999999999" y="488.5050000000001" as="targetPoint" />
            <Array as="points">
              <mxPoint x="387" y="440" />
              <mxPoint x="387" y="395" />
            </Array>
          </mxGeometry>
        </mxCell>
        <mxCell id="Yq877jy8nlQ7mpjoUAYc-36" value="" style="edgeStyle=orthogonalEdgeStyle;rounded=0;orthogonalLoop=1;jettySize=auto;startArrow=blockThin;startFill=1;endArrow=none;endFill=0;strokeWidth=1;entryX=0;entryY=0.5;entryDx=0;entryDy=0;" edge="1" parent="zubyIa7aWpSav51OET3G-1" target="Yq877jy8nlQ7mpjoUAYc-41">
          <mxGeometry relative="1" as="geometry">
            <mxPoint x="388.1100000000001" y="494.53999999999996" as="sourcePoint" />
            <mxPoint x="400.11" y="524" as="targetPoint" />
            <Array as="points">
              <mxPoint x="388" y="523" />
              <mxPoint x="403" y="523" />
            </Array>
          </mxGeometry>
        </mxCell>
        <mxCell id="Yq877jy8nlQ7mpjoUAYc-37" value="Serialized&#xa;Data &#xa;Streams" style="text;resizable=0;autosize=1;align=center;verticalAlign=middle;points=[];fillColor=none;strokeColor=none;rounded=0;labelBackgroundColor=none;fontSize=9;" vertex="1" parent="zubyIa7aWpSav51OET3G-1">
          <mxGeometry x="468.00000000000006" y="503.48" width="50" height="40" as="geometry" />
        </mxCell>
        <mxCell id="Yq877jy8nlQ7mpjoUAYc-38" value="" style="edgeStyle=orthogonalEdgeStyle;rounded=0;orthogonalLoop=1;jettySize=auto;startArrow=blockThin;startFill=1;endArrow=none;endFill=0;strokeWidth=1;entryX=1.004;entryY=0.5;entryDx=0;entryDy=0;entryPerimeter=0;" edge="1" parent="zubyIa7aWpSav51OET3G-1" target="Yq877jy8nlQ7mpjoUAYc-37">
          <mxGeometry relative="1" as="geometry">
            <mxPoint x="531" y="496" as="sourcePoint" />
            <mxPoint x="700.9999999999999" y="560.375" as="targetPoint" />
            <Array as="points">
              <mxPoint x="531" y="523" />
              <mxPoint x="518" y="523" />
            </Array>
          </mxGeometry>
        </mxCell>
        <mxCell id="Yq877jy8nlQ7mpjoUAYc-39" value="" style="edgeStyle=orthogonalEdgeStyle;rounded=0;orthogonalLoop=1;jettySize=auto;startArrow=blockThin;startFill=1;endArrow=none;endFill=0;strokeWidth=1;entryX=1;entryY=0.5;entryDx=0;entryDy=0;" edge="1" parent="zubyIa7aWpSav51OET3G-1" target="Yq877jy8nlQ7mpjoUAYc-40">
          <mxGeometry relative="1" as="geometry">
            <mxPoint x="530" y="443" as="sourcePoint" />
            <mxPoint x="518.7655" y="415.95000000000005" as="targetPoint" />
            <Array as="points">
              <mxPoint x="530" y="414" />
            </Array>
          </mxGeometry>
        </mxCell>
        <mxCell id="Yq877jy8nlQ7mpjoUAYc-40" value="Deserialized&#xa;Data&#xa;Streams" style="rounded=1;align=center;verticalAlign=middle;fontSize=9;fontStyle=0;fillColor=none;strokeColor=none;" vertex="1" parent="zubyIa7aWpSav51OET3G-1">
          <mxGeometry x="461.79" y="393.6700000000001" width="54.21" height="38.79" as="geometry" />
        </mxCell>
        <mxCell id="Yq877jy8nlQ7mpjoUAYc-41" value="Deserialized&#xa;Data&#xa;Streams" style="rounded=1;align=center;verticalAlign=middle;fontSize=9;fontStyle=0;fillColor=none;strokeColor=none;" vertex="1" parent="zubyIa7aWpSav51OET3G-1">
          <mxGeometry x="403.11" y="504.09000000000015" width="54.21" height="38.79" as="geometry" />
        </mxCell>
      </root>
    </mxGraphModel>
  </diagram>
</mxfile>
